<?xml version="1.0" encoding="utf-8"?>
<!-- Generator: Adobe Illustrator 28.0.0, SVG Export Plug-In . SVG Version: 6.00 Build 0)  -->
<svg version="1.1" id="Layer_1" xmlns="http://www.w3.org/2000/svg" xmlns:xlink="http://www.w3.org/1999/xlink" x="0px" y="0px"
	 viewBox="0 0 48 46" style="enable-background:new 0 0 48 46;" xml:space="preserve">
<style type="text/css">
	.st0{fill:#22303E;}
	.st1{fill:#F3F8F9;}
	.st2{fill:#F37F58;}
</style>
<path class="st0" d="M36.7,46H11.3C5.1,46,0,41,0,34.7V11.3C0,5,5.1,0,11.3,0h25.4C42.9,0,48,5,48,11.3v23.5C48,41,42.9,46,36.7,46z
	"/>
<g>
	<path class="st1" d="M11.4,21.4c-0.3-7.4,6.1-13.2,13.1-13c7.4,0.2,13.1,5.5,13.1,13.3c0,6.8-5.8,13.3-13.8,12.9
		C17.5,34.2,11,28.9,11.4,21.4z M24.5,14.4c-3.8-0.3-7.1,3.2-7.2,6.7c-0.1,4.4,3.3,7.4,7,7.5c4.2,0.1,7.5-3.4,7.5-7.2
		C31.8,17.8,28.1,14,24.5,14.4z"/>
	<path class="st2" d="M24.9,42.3c-5,0-9-1.3-12.6-4c-0.7-0.5-0.7-0.9-0.2-1.5c0.7-0.8,1.3-1.5,1.9-2.4c0.4-0.6,0.8-0.6,1.4-0.2
		c2.7,1.9,5.6,2.9,8.9,2.9c3.2,0,6.2-1,8.8-2.8c0.8-0.6,1.2-0.5,1.7,0.2c0.5,0.7,1,1.4,1.6,2c0.8,0.8,0.5,1.3-0.3,1.9
		C32.8,41.2,28.8,42.3,24.9,42.3z"/>
	<path class="st2" d="M38.2,3.8c2-0.2,4,1.8,4,3.9c0,2.1-1.8,4-4.2,3.9c-2,0-3.9-1.7-3.8-4.1C34.3,5.6,36.1,3.7,38.2,3.8z"/>
</g>
</svg>
