<?xml version="1.0" encoding="UTF-8"?>
<svg id="Layer_2" data-name="Layer 2" xmlns="http://www.w3.org/2000/svg" viewBox="0 0 110.78 138.33">
  <defs>
    <style>
      .cls-1 {
        fill: #f3f8f9;
      }

      .cls-1, .cls-2 {
        stroke-width: 0px;
      }

      .cls-2 {
        fill: #f2f9fd;
      }
    </style>
  </defs>
  <g id="Layer_1-2" data-name="Layer 1">
    <g>
      <path class="cls-1" d="m.07,63.08C-.92,36.57,22.04,15.76,47.23,16.3c26.68.58,46.86,19.75,46.96,47.58.09,24.25-20.72,47.89-49.67,46.33C21.98,109.01-1.45,90.12.07,63.08Zm47.01-25.07c-13.68-1.03-25.62,11.5-26.01,24.11-.48,15.76,12.01,26.74,25,26.98,15.25.27,26.93-12.19,27.08-25.75.15-13.28-12.94-26.92-26.07-25.34Z"/>
      <path class="cls-2" d="m48.66,138.33c-17.86-.09-32.38-4.51-45.21-14.34-2.54-1.95-2.52-3.31-.54-5.51,2.45-2.72,4.79-5.56,6.91-8.54,1.54-2.16,2.7-2.22,4.88-.7,9.58,6.7,20.22,10.52,32,10.57,11.62.04,22.24-3.46,31.68-10.12,2.81-1.98,4.39-1.71,6.25.89,1.79,2.5,3.64,5,5.81,7.17,2.94,2.94,1.77,4.7-1,6.86-12.57,9.77-26.98,13.61-40.79,13.72Z"/>
      <path class="cls-1" d="m96.43.07c7.23-.87,14.43,6.64,14.35,13.95-.09,7.47-6.51,14.32-14.9,14.17-7.15-.13-14.02-6.17-13.76-14.85.21-6.94,6.78-13.84,14.31-13.27Z"/>
    </g>
  </g>
</svg>