<?xml version="1.0" encoding="UTF-8"?>
<svg id="Camada_2" data-name="Camada 2" xmlns="http://www.w3.org/2000/svg" viewBox="0 0 535.03 138.33">
  <defs>
    <style>
      .cls-1 {
        fill: #f2f9fd;
      }

      .cls-2 {
        fill: #f3f8f9;
      }

      .cls-3 {
        fill: #f37f58;
      }
    </style>
  </defs>
  <g id="Layer_1" data-name="Layer 1">
    <g>
      <path class="cls-1" d="M172.31,82.03c0,8.04.14,15.02-.07,21.99-.07,2.49-1.4,4.33-4.18,5.31-29.19,10.25-58.19-7.77-63.12-36.16-4.44-25.56,8.2-48.44,35.13-55.13,18.23-4.53,35.23-.26,48.2,14.46,7.06,8.02,11.1,17.61,11.27,28.39.24,15.23-.02,30.47.13,45.7.03,2.89-.75,3.74-3.62,3.6-4.83-.24-9.68-.21-14.51,0-2.56.11-3.13-.78-3.11-3.2.11-13.33-.15-26.66.11-39.99.26-13.36-7.99-26.14-21.83-28.55-8.72-1.51-16.15.59-22.2,6.29-11.7,11.03-12.35,27.24-.82,38.43,10.91,10.58,23.94,9.93,36.06.91.56-.42,1.09-.87,2.57-2.05Z"/>
      <path class="cls-1" d="M507.68,82.75c0,6.84-.08,13.28.03,19.71.06,3.36-2.07,5.12-4.67,5.82-16.01,4.28-30.99,2.43-44.01-8.56-8.21-6.93-14.1-15.41-15.89-26.3-4.17-25.31,6.7-49.96,34.47-56.37,16.58-3.83,32.2-.71,44.42,12.14,8.19,8.62,13.12,18.91,12.97,31.24-.17,14.8-.13,29.61.03,44.42.03,2.93-.82,3.72-3.65,3.57-4.39-.23-8.81-.27-13.19.02-3.06.2-3.54-.99-3.52-3.7.12-13.93.18-27.85.02-41.78-.12-10.37-7.13-21.16-17.53-24.54-15.31-4.97-29.35,3.66-33.42,18.31-3.04,10.94,1.01,19.93,9.21,26.83,7.73,6.51,16.68,7.11,26.16,3.29,2.77-1.12,5.03-3.14,8.59-4.09Z"/>
      <path class="cls-2" d="M258.58,63.08c-.99-26.51,21.97-47.32,47.16-46.77,26.68.58,46.86,19.75,46.96,47.58.09,24.25-20.72,47.89-49.67,46.33-22.54-1.21-45.97-20.1-44.45-47.14ZM305.59,38.01c-13.68-1.03-25.62,11.5-26.01,24.11-.48,15.76,12.01,26.74,25,26.98,15.25.27,26.93-12.19,27.08-25.75.15-13.28-12.94-26.92-26.07-25.34Z"/>
      <path class="cls-1" d="M51.57,78.56c8.09-18.2,16.17-36.15,24.03-54.2,3.15-7.24,4.41-8.34,12.46-8.34,4.25,0,8.5.03,12.75-.01,2.35-.03,3.58,0,2.13,3.1-7.81,16.7-15.39,33.51-23.01,50.3-5.62,12.39-11.27,24.76-16.71,37.23-1.5,3.43-3.59,4.95-7.32,4.43-1.73-.24-3.54-.25-5.27,0-7.07,1.01-10.76-2.72-13.4-8.71-8.57-19.46-17.44-38.78-25.95-58.26C7.67,35.78,3.49,27.73.47,19.14c-1.09-3.1-.21-3.15,2.18-3.13,5.28.05,10.56.16,15.83-.04,3.81-.15,5.49,1.85,6.9,5.02,8.41,18.9,16.97,37.73,25.49,56.58.1.23.3.42.71.98Z"/>
      <path class="cls-1" d="M372.12,85.46c-.17-11.97.04-23.8,4.01-35.42,5.63-16.49,16.43-27.12,32.97-32.28,6.36-1.98,12.83-1.82,19.32-1.71,3.19.06,8.07,3.66,7.11,7.96-.22.98-.03,2.04-.03,3.07,0,7.75-1.84,9.64-9.46,10.99-7.51,1.33-14.63,3.67-20.04,9.59-4.23,4.63-6.46,10.06-6.53,16.22-.15,12.15-.04,24.31-.05,36.47,0,4.79-2.1,7.84-6.84,9.08-4.92,1.29-9.93,1.21-14.92-.06-3.82-.97-5.43-3.58-5.5-7.21-.12-5.56-.03-11.13-.03-16.7Z"/>
      <path class="cls-1" d="M215.45,62.71c0-14.35.07-28.71-.06-43.06-.02-2.7.45-3.85,3.51-3.71,5.85.27,11.72.15,17.58.04,2.03-.04,2.77.45,2.77,2.64-.07,29.59-.08,59.17.01,88.76,0,2.5-.95,2.84-3.07,2.79-5.57-.12-11.15-.24-16.7.03-3.19.15-4.19-.58-4.14-3.99.22-14.5.09-29,.1-43.5Z"/>
      <path class="cls-3" d="M307.16,138.33c-17.86-.09-32.38-4.51-45.21-14.34-2.54-1.95-2.52-3.31-.54-5.51,2.45-2.72,4.79-5.56,6.91-8.54,1.54-2.16,2.7-2.22,4.88-.7,9.58,6.7,20.22,10.52,32,10.57,11.62.04,22.24-3.46,31.68-10.12,2.81-1.98,4.39-1.71,6.25.89,1.79,2.5,3.64,5,5.81,7.17,2.94,2.94,1.77,4.7-1,6.86-12.57,9.77-26.98,13.61-40.79,13.72Z"/>
      <path class="cls-3" d="M354.93.07c7.23-.87,14.43,6.64,14.35,13.95-.09,7.47-6.51,14.32-14.9,14.17-7.15-.13-14.02-6.17-13.76-14.85.21-6.94,6.78-13.84,14.31-13.27Z"/>
    </g>
  </g>
</svg>